<?xml version="1.0" encoding="utf-8"?>
<!-- Generator: Adobe Illustrator 26.0.1, SVG Export Plug-In . SVG Version: 6.00 Build 0)  -->
<svg version="1.1" id="Capa_1" xmlns="http://www.w3.org/2000/svg" xmlns:xlink="http://www.w3.org/1999/xlink" x="0px" y="0px"
	 viewBox="0 0 164.4 116.2" style="enable-background:new 0 0 164.4 116.2;" xml:space="preserve">
<style type="text/css">
	.st0{fill:url(#SVGID_1_);}
	.st1{fill:none;stroke:#000000;stroke-width:2.4;stroke-miterlimit:10;}
	.st2{fill:url(#SVGID_00000124865548197066899630000017643101238427078549_);}
	.st3{font-family:'PuffinDisplaySoft-Medm';}
	.st4{font-size:22.4726px;}
</style>
<linearGradient id="SVGID_1_" gradientUnits="userSpaceOnUse" x1="80.3089" y1="66.0659" x2="50.4866" y2="8.0786" gradientTransform="matrix(0.9988 -4.856595e-02 4.856595e-02 0.9988 11.8024 -0.5801)">
	<stop  offset="0" style="stop-color:#E30A71"/>
	<stop  offset="7.154704e-02" style="stop-color:#E43471"/>
	<stop  offset="0.2206" style="stop-color:#EB6D6C"/>
	<stop  offset="0.4326" style="stop-color:#F7AF36"/>
	<stop  offset="0.5221" style="stop-color:#FDC800"/>
	<stop  offset="0.5773" style="stop-color:#FCC500"/>
	<stop  offset="0.6439" style="stop-color:#FABC15"/>
	<stop  offset="0.7163" style="stop-color:#F6AC3A"/>
	<stop  offset="0.7928" style="stop-color:#F19556"/>
	<stop  offset="0.8727" style="stop-color:#EC736A"/>
	<stop  offset="0.954" style="stop-color:#E64070"/>
	<stop  offset="1" style="stop-color:#E30A71"/>
</linearGradient>
<path class="st0" d="M97.8,47.9c6.7-5.1,10.7-12.5,10.3-20.6c-0.7-14.5-15.5-25.5-33-24.6S43.9,15.9,44.6,30.4
	c0.7,14.5,15.5,25.5,33,24.6c5.5-0.3,10.7-1.7,15.1-4c3,2,6.4,3.9,10.2,5.9c0.2,0.1,0.4-0.1,0.3-0.3C102.3,55.1,100,51.8,97.8,47.9z
	"/>
<g>
	<path d="M4.2,98.6V57c0-1.4,0.6-1.9,1.9-1.9H9c1.4,0,1.9,0.6,1.9,1.9v41.7c0,1.4-0.6,1.9-1.9,1.9H6.1C4.8,100.5,4.2,100,4.2,98.6z"
		/>
	<path d="M26.9,98.5c0,1.5-0.5,2-1.7,2h-1.7c-1.4,0-1.9-0.6-1.9-1.9V57c0-1.4,0.6-1.9,1.9-1.9h2.7c1.4,0,1.9,0.6,1.9,1.9v11.9
		c2-1.7,5.6-2.9,9.2-2.9c8.5,0,13.1,5.9,13.1,16.8c0,11.9-5.4,18.4-15.1,18.4C31.9,101.2,29.1,100.2,26.9,98.5z M43.6,82.9
		c0-7.6-2.5-11.2-7.8-11.2c-2.8,0-5.9,1.1-7.7,2.8v19.2c1.7,1.2,3.6,1.8,6.1,1.8C40.5,95.5,43.6,91.4,43.6,82.9z"/>
	<path d="M57.4,84c0-11.7,5.4-18,15.6-18c7.9,0,12.7,3.9,12.7,10.1c0,5.8-3.9,9-11.4,9.5l-10.1,0.7c0.4,6.3,3.3,9.1,9.8,9.1
		c2.7,0,5.4-0.6,8.2-1.6c1.5-0.6,2.5-0.2,2.5,1.2v2.2c0,1.1-0.4,1.8-1.4,2.2c-2,1-6.4,1.8-10,1.8C62.5,101.2,57.4,95.7,57.4,84z
		 M72,81.1c4.9-0.4,7.3-1.8,7.3-4.9c0-3.2-2.4-4.9-6.4-4.9c-5.6,0-8.7,3.7-8.8,10.5L72,81.1z"/>
	<path d="M93.4,98.6V68.6c0-1.4,0.6-2,1.9-2h2.2c1.4,0,1.9,0.6,1.9,1.8v2.2h0.1c2.7-2.6,7-4.3,10.4-4.3c1.5,0,2,0.5,2,1.9v2.9
		c0,1.3-0.5,1.9-1.7,1.9c-0.6,0-1.1-0.1-1.5-0.1c-3.5,0-6.6,0.9-8.8,2.5v23.2c0,1.4-0.6,1.9-1.9,1.9h-2.7
		C94,100.5,93.4,100,93.4,98.6z"/>
	<path d="M116.3,59.6c0-2.7,1.6-4.2,4.6-4.2c3,0,4.6,1.5,4.6,4.2c0,2.7-1.6,4.2-4.6,4.2C117.9,63.8,116.3,62.3,116.3,59.6z
		 M117.6,98.6V69.6c0-1.2,0.6-1.8,1.9-1.7c0.5,0.1,0.9,0.1,1.4,0.1s0.9-0.1,1.4-0.1c1.3-0.1,1.9,0.4,1.9,1.7v29.1
		c0,1.4-0.6,1.9-1.9,1.9h-2.7C118.2,100.5,117.6,100,117.6,98.6z"/>
	<path d="M131.7,91.5c0-7.5,6.2-10.7,21.1-10.8V80c0-5.8-2.5-8.3-8.1-8.3c-2.5,0-4.8,0.5-7.4,1.4c-1.6,0.6-2.4,0.3-2.8-0.9l-0.5-1.9
		c-0.4-1.1-0.1-1.9,1-2.3c2.2-1.1,7-2,10.7-2c9.1,0,13.7,4.6,13.7,13.4v19.2c0,1.3-0.6,1.9-1.9,1.9h-2c-1.4,0-2-0.6-2-2v-1.1
		c-2.6,2.3-6.4,3.7-10.8,3.7C135.7,101.2,131.7,97.6,131.7,91.5z M152.8,93.1v-7.7c-10.8,0.1-14.5,1.8-14.5,5.9c0,3,2,4.6,6,4.6
		C147.4,96,150.6,95,152.8,93.1z"/>
</g>
<path class="st1" d="M101.8,48.2c6.9-4.8,11.3-12,11.3-20C113.1,13.7,98.9,2,81.3,2S49.5,13.7,49.5,28.2s14.2,26.2,31.8,26.2
	c5.5,0,10.7-1.2,15.3-3.2c3,2.1,6.2,4.3,9.9,6.4c0.2,0.1,0.4-0.1,0.3-0.3C105.9,55.7,103.8,52.3,101.8,48.2z"/>
<linearGradient id="SVGID_00000071548874318659484850000011844960825514894245_" gradientUnits="userSpaceOnUse" x1="86.342" y1="44.4157" x2="71.0932" y2="14.7656">
	<stop  offset="0" style="stop-color:#FFFFFF;stop-opacity:0.8"/>
	<stop  offset="6.689394e-02" style="stop-color:#FFFFFF;stop-opacity:0.7465"/>
	<stop  offset="1" style="stop-color:#FFFFFF;stop-opacity:0"/>
</linearGradient>
<ellipse style="fill:url(#SVGID_00000071548874318659484850000011844960825514894245_);" cx="78.7" cy="29.6" rx="18.6" ry="16.1"/>
<text transform="matrix(1 0 0 1 74.0859 34.3311)" class="st3 st4">;)</text>
<g>
	<path d="M0.9,110.1c0-2.7,0.9-3.8,2.9-3.8c0.7,0,1.4,0.2,1.7,0.4c0.2,0.1,0.2,0.2,0.2,0.4l-0.1,0.5c-0.1,0.2-0.2,0.2-0.4,0.1
		c-0.4-0.2-0.9-0.3-1.3-0.3c-1.3,0-1.8,0.7-1.8,2.7c0,2,0.5,2.7,1.8,2.7c0.5,0,1-0.1,1.4-0.3c0.2-0.1,0.4,0,0.4,0.2v0.5
		c0,0.2-0.1,0.3-0.2,0.3c-0.3,0.1-1,0.3-1.6,0.3C1.7,113.9,0.9,112.8,0.9,110.1z"/>
	<path d="M6.4,111.1c0-1.9,0.9-2.9,2.5-2.9c1.3,0,2,0.6,2,1.6c0,0.9-0.6,1.4-1.8,1.5l-1.6,0.1c0.1,1,0.5,1.5,1.6,1.5
		c0.4,0,0.9-0.1,1.3-0.3c0.2-0.1,0.4,0,0.4,0.2v0.3c0,0.2-0.1,0.3-0.2,0.4c-0.3,0.2-1,0.3-1.6,0.3C7.2,113.9,6.4,113,6.4,111.1z
		 M8.8,110.6c0.8-0.1,1.2-0.3,1.2-0.8s-0.4-0.8-1-0.8c-0.9,0-1.4,0.6-1.4,1.7L8.8,110.6z"/>
	<path d="M12.2,113.4v-4.8c0-0.2,0.1-0.3,0.3-0.3h0.3c0.2,0,0.3,0.1,0.3,0.3v0.1c0.4-0.3,1-0.6,1.6-0.6c1.2,0,1.8,0.7,1.8,2.2v3.1
		c0,0.2-0.1,0.3-0.3,0.3h-0.4c-0.2,0-0.3-0.1-0.3-0.3v-3c0-0.9-0.3-1.3-1-1.3c-0.4,0-0.9,0.2-1.3,0.4v3.9c0,0.2-0.1,0.3-0.3,0.3
		h-0.4C12.3,113.7,12.2,113.7,12.2,113.4z"/>
	<path d="M18.4,111.8v-2.6h-0.6c-0.2,0-0.3-0.1-0.3-0.3v-0.3c0-0.2,0.1-0.3,0.3-0.3h0.6v-1c0-0.2,0.1-0.3,0.3-0.4l0.3,0
		c0.1,0,0.2,0,0.3,0c0.2,0,0.2,0.1,0.2,0.3v1.2h1.4c0.2,0,0.3,0.1,0.3,0.3v0.3c0,0.2-0.1,0.3-0.3,0.3h-1.4v2.5
		c0,0.8,0.2,1.2,0.8,1.2c0.3,0,0.5-0.1,0.7-0.1c0.1,0,0.2,0.1,0.2,0.3v0.3c0,0.2,0,0.3-0.3,0.4c-0.2,0-0.4,0.1-0.7,0.1
		C19.1,113.8,18.4,113.3,18.4,111.8z"/>
	<path d="M22.3,113.4v-4.8c0-0.2,0.1-0.3,0.3-0.3h0.3c0.2,0,0.3,0.1,0.3,0.3v0.3h0c0.4-0.4,1.1-0.7,1.7-0.7c0.2,0,0.3,0.1,0.3,0.3
		v0.5c0,0.2-0.1,0.3-0.3,0.3c-0.1,0-0.2,0-0.2,0c-0.6,0-1.1,0.1-1.4,0.4v3.7c0,0.2-0.1,0.3-0.3,0.3h-0.4
		C22.4,113.7,22.3,113.7,22.3,113.4z"/>
	<path d="M25.8,111c0-1.9,0.8-2.8,2.4-2.8c1.6,0,2.4,0.9,2.4,2.8s-0.8,2.8-2.4,2.8C26.6,113.9,25.8,112.9,25.8,111z M29.6,111
		c0-1.3-0.4-1.9-1.4-1.9c-0.9,0-1.3,0.6-1.3,1.9c0,1.3,0.4,1.9,1.3,1.9C29.2,112.9,29.6,112.4,29.6,111z"/>
	<path d="M34,111c0-1.9,0.8-2.8,2.5-2.8c0.5,0,1,0.1,1.2,0.2c0.2,0.1,0.2,0.2,0.2,0.4l-0.1,0.3c-0.1,0.2-0.2,0.3-0.4,0.2
		c-0.3-0.1-0.5-0.2-0.8-0.2c-1,0-1.4,0.5-1.4,1.9c0,1.4,0.4,1.9,1.4,1.9c0.3,0,0.6-0.1,0.9-0.2c0.3-0.1,0.4,0,0.4,0.2v0.3
		c0,0.2-0.1,0.3-0.2,0.3c-0.3,0.1-0.7,0.2-1.2,0.2C34.8,113.9,34,112.9,34,111z"/>
	<path d="M38.9,111.7v-3.1c0-0.2,0.1-0.3,0.3-0.3h0.4c0.2,0,0.3,0.1,0.3,0.3v3c0,0.9,0.3,1.3,1,1.3c0.4,0,0.9-0.2,1.2-0.4v-3.9
		c0-0.2,0.1-0.3,0.3-0.3H43c0.2,0,0.3,0.1,0.3,0.3v4.8c0,0.2-0.1,0.3-0.3,0.3h-0.3c-0.2,0-0.3-0.1-0.3-0.3v-0.1
		c-0.4,0.3-1,0.6-1.6,0.6C39.5,113.9,38.9,113.1,38.9,111.7z"/>
	<path d="M44.8,112.3v-5.6c0-0.2,0.1-0.3,0.3-0.3h0.4c0.2,0,0.3,0.1,0.3,0.3v5.5c0,0.5,0.2,0.7,0.6,0.7c0.1,0,0.2,0,0.3,0
		c0.2,0,0.2,0.1,0.2,0.3v0.3c0,0.2-0.1,0.3-0.3,0.3c-0.1,0-0.3,0-0.5,0C45.2,113.8,44.8,113.4,44.8,112.3z"/>
	<path d="M48.1,111.8v-2.6h-0.6c-0.2,0-0.3-0.1-0.3-0.3v-0.3c0-0.2,0.1-0.3,0.3-0.3h0.6v-1c0-0.2,0.1-0.3,0.3-0.4l0.3,0
		c0.1,0,0.2,0,0.3,0c0.2,0,0.2,0.1,0.2,0.3v1.2h1.4c0.2,0,0.3,0.1,0.3,0.3v0.3c0,0.2-0.1,0.3-0.3,0.3h-1.4v2.5
		c0,0.8,0.2,1.2,0.8,1.2c0.3,0,0.5-0.1,0.7-0.1c0.1,0,0.2,0.1,0.2,0.3v0.3c0,0.2,0,0.3-0.3,0.4c-0.2,0-0.4,0.1-0.7,0.1
		C48.7,113.8,48.1,113.3,48.1,111.8z"/>
	<path d="M51.8,111.7v-3.1c0-0.2,0.1-0.3,0.3-0.3h0.4c0.2,0,0.3,0.1,0.3,0.3v3c0,0.9,0.3,1.3,1,1.3c0.4,0,0.9-0.2,1.2-0.4v-3.9
		c0-0.2,0.1-0.3,0.3-0.3h0.4c0.2,0,0.3,0.1,0.3,0.3v4.8c0,0.2-0.1,0.3-0.3,0.3h-0.3c-0.2,0-0.3-0.1-0.3-0.3v-0.1
		c-0.4,0.3-1,0.6-1.6,0.6C52.4,113.9,51.8,113.1,51.8,111.7z"/>
	<path d="M57.7,113.4v-4.8c0-0.2,0.1-0.3,0.3-0.3h0.3c0.2,0,0.3,0.1,0.3,0.3v0.3h0c0.4-0.4,1.1-0.7,1.7-0.7c0.2,0,0.3,0.1,0.3,0.3
		v0.5c0,0.2-0.1,0.3-0.3,0.3c-0.1,0-0.2,0-0.2,0c-0.6,0-1.1,0.1-1.4,0.4v3.7c0,0.2-0.1,0.3-0.3,0.3H58
		C57.8,113.7,57.7,113.7,57.7,113.4z"/>
	<path d="M61.1,112.3c0-1.2,1-1.7,3.4-1.7v-0.1c0-0.9-0.4-1.3-1.3-1.3c-0.4,0-0.8,0.1-1.2,0.2c-0.3,0.1-0.4,0-0.4-0.1l-0.1-0.3
		c-0.1-0.2,0-0.3,0.2-0.4c0.4-0.2,1.1-0.3,1.7-0.3c1.5,0,2.2,0.7,2.2,2.2v3.1c0,0.2-0.1,0.3-0.3,0.3h-0.3c-0.2,0-0.3-0.1-0.3-0.3
		v-0.2c-0.4,0.4-1,0.6-1.7,0.6C61.7,113.9,61.1,113.3,61.1,112.3z M64.5,112.6v-1.2c-1.7,0-2.3,0.3-2.3,1c0,0.5,0.3,0.7,1,0.7
		C63.6,113,64.1,112.8,64.5,112.6z"/>
	<path d="M67.1,112.3v-5.6c0-0.2,0.1-0.3,0.3-0.3h0.4c0.2,0,0.3,0.1,0.3,0.3v5.5c0,0.5,0.2,0.7,0.6,0.7c0.1,0,0.2,0,0.3,0
		c0.2,0,0.2,0.1,0.2,0.3v0.3c0,0.2-0.1,0.3-0.3,0.3c-0.1,0-0.3,0-0.5,0C67.5,113.8,67.1,113.4,67.1,112.3z"/>
	<path d="M71.6,115.5c-0.3-0.1-0.3-0.2-0.3-0.4v-0.3c0-0.2,0-0.3,0.2-0.3c0.1,0,0.3,0.1,0.5,0.1c0.6,0,1.1-0.4,1.6-1.1
		c-0.9-1.4-1.8-4.2-1.8-4.9c0-0.2,0.1-0.3,0.3-0.3h0.4c0.2,0,0.3,0.1,0.4,0.3c0.2,1.4,0.8,2.9,1.3,4c0.5-1.1,1.1-2.6,1.3-4
		c0-0.2,0.1-0.3,0.4-0.3h0.4c0.2,0,0.3,0.1,0.3,0.3c0,0.7-0.9,3.2-1.7,4.7c-0.8,1.4-1.5,2.3-2.7,2.3
		C71.9,115.5,71.7,115.5,71.6,115.5z"/>
	<path d="M79.6,111.1c0-1.9,0.9-2.9,2.5-2.9c1.3,0,2,0.6,2,1.6c0,0.9-0.6,1.4-1.8,1.5l-1.6,0.1c0.1,1,0.5,1.5,1.6,1.5
		c0.4,0,0.9-0.1,1.3-0.3c0.2-0.1,0.4,0,0.4,0.2v0.3c0,0.2-0.1,0.3-0.2,0.4c-0.3,0.2-1,0.3-1.6,0.3C80.5,113.9,79.6,113,79.6,111.1z
		 M82,110.6c0.8-0.1,1.2-0.3,1.2-0.8s-0.4-0.8-1-0.8c-0.9,0-1.4,0.6-1.4,1.7L82,110.6z"/>
	<path d="M85.2,111.2c0-1.9,0.9-3,2.5-3c0.4,0,0.8,0.1,1.1,0.2v-1.7c0-0.2,0.1-0.3,0.3-0.3h0.4c0.2,0,0.3,0.1,0.3,0.3v6.7
		c0,0.2-0.1,0.3-0.3,0.3h-0.3c-0.2,0-0.3-0.1-0.3-0.3v-0.1c-0.3,0.3-0.9,0.6-1.6,0.6C85.9,113.9,85.2,112.9,85.2,111.2z M88.7,112.5
		v-3.1c-0.3-0.2-0.6-0.2-1-0.2c-1,0-1.5,0.7-1.5,2c0,1.2,0.4,1.8,1.3,1.8C87.9,112.9,88.4,112.8,88.7,112.5z"/>
	<path d="M91.3,111.7v-3.1c0-0.2,0.1-0.3,0.3-0.3H92c0.2,0,0.3,0.1,0.3,0.3v3c0,0.9,0.3,1.3,1,1.3c0.4,0,0.9-0.2,1.2-0.4v-3.9
		c0-0.2,0.1-0.3,0.3-0.3h0.4c0.2,0,0.3,0.1,0.3,0.3v4.8c0,0.2-0.1,0.3-0.3,0.3h-0.3c-0.2,0-0.3-0.1-0.3-0.3v-0.1
		c-0.4,0.3-1,0.6-1.6,0.6C91.9,113.9,91.3,113.1,91.3,111.7z"/>
	<path d="M96.9,111c0-1.9,0.8-2.8,2.5-2.8c0.5,0,1,0.1,1.2,0.2c0.2,0.1,0.2,0.2,0.2,0.4l-0.1,0.3c-0.1,0.2-0.2,0.3-0.4,0.2
		c-0.3-0.1-0.5-0.2-0.8-0.2c-1,0-1.4,0.5-1.4,1.9c0,1.4,0.4,1.9,1.4,1.9c0.3,0,0.6-0.1,0.9-0.2c0.3-0.1,0.4,0,0.4,0.2v0.3
		c0,0.2-0.1,0.3-0.2,0.3c-0.3,0.1-0.7,0.2-1.2,0.2C97.7,113.9,96.9,112.9,96.9,111z"/>
	<path d="M101.6,112.3c0-1.2,1-1.7,3.4-1.7v-0.1c0-0.9-0.4-1.3-1.3-1.3c-0.4,0-0.8,0.1-1.2,0.2c-0.3,0.1-0.4,0-0.4-0.1l-0.1-0.3
		c-0.1-0.2,0-0.3,0.2-0.4c0.4-0.2,1.1-0.3,1.7-0.3c1.5,0,2.2,0.7,2.2,2.2v3.1c0,0.2-0.1,0.3-0.3,0.3h-0.3c-0.2,0-0.3-0.1-0.3-0.3
		v-0.2c-0.4,0.4-1,0.6-1.7,0.6C102.2,113.9,101.6,113.3,101.6,112.3z M104.9,112.6v-1.2c-1.7,0-2.3,0.3-2.3,1c0,0.5,0.3,0.7,1,0.7
		C104.1,113,104.6,112.8,104.9,112.6z"/>
	<path d="M107.8,111.8v-2.6h-0.6c-0.2,0-0.3-0.1-0.3-0.3v-0.3c0-0.2,0.1-0.3,0.3-0.3h0.6v-1c0-0.2,0.1-0.3,0.3-0.4l0.3,0
		c0.1,0,0.2,0,0.3,0c0.2,0,0.2,0.1,0.2,0.3v1.2h1.4c0.2,0,0.3,0.1,0.3,0.3v0.3c0,0.2-0.1,0.3-0.3,0.3h-1.4v2.5
		c0,0.8,0.2,1.2,0.8,1.2c0.3,0,0.5-0.1,0.7-0.1c0.1,0,0.2,0.1,0.2,0.3v0.3c0,0.2,0,0.3-0.3,0.4c-0.2,0-0.4,0.1-0.7,0.1
		C108.4,113.8,107.8,113.3,107.8,111.8z"/>
	<path d="M111.4,107.2c0-0.4,0.3-0.7,0.7-0.7c0.5,0,0.7,0.2,0.7,0.7c0,0.4-0.3,0.7-0.7,0.7C111.7,107.8,111.4,107.6,111.4,107.2z
		 M111.6,113.4v-4.7c0-0.2,0.1-0.3,0.3-0.3c0.1,0,0.1,0,0.2,0c0.1,0,0.1,0,0.2,0c0.2,0,0.3,0.1,0.3,0.3v4.7c0,0.2-0.1,0.3-0.3,0.3
		h-0.4C111.7,113.7,111.6,113.7,111.6,113.4z"/>
	<path d="M115.6,113.5c-0.9-1.4-1.9-4.2-1.9-4.9c0-0.2,0.1-0.3,0.3-0.3h0.4c0.2,0,0.3,0.1,0.4,0.3c0.2,1.4,0.8,2.9,1.3,4
		c0.5-1.1,1.1-2.6,1.3-4c0-0.2,0.1-0.3,0.4-0.3h0.4c0.2,0,0.3,0.1,0.3,0.3c0,0.7-1,3.5-1.9,4.9c-0.1,0.1-0.2,0.2-0.4,0.2H116
		C115.8,113.7,115.7,113.7,115.6,113.5z"/>
	<path d="M119.4,111c0-1.9,0.8-2.8,2.4-2.8c1.6,0,2.4,0.9,2.4,2.8s-0.8,2.8-2.4,2.8C120.2,113.9,119.4,112.9,119.4,111z M123.2,111
		c0-1.3-0.4-1.9-1.4-1.9c-0.9,0-1.3,0.6-1.3,1.9c0,1.3,0.4,1.9,1.3,1.9C122.8,112.9,123.2,112.4,123.2,111z"/>
	<path d="M127.6,111.1c0-1.9,0.9-2.9,2.5-2.9c1.3,0,2,0.6,2,1.6c0,0.9-0.6,1.4-1.8,1.5l-1.6,0.1c0.1,1,0.5,1.5,1.6,1.5
		c0.4,0,0.9-0.1,1.3-0.3c0.2-0.1,0.4,0,0.4,0.2v0.3c0,0.2-0.1,0.3-0.2,0.4c-0.3,0.2-1,0.3-1.6,0.3
		C128.4,113.9,127.6,113,127.6,111.1z M129.9,110.6c0.8-0.1,1.2-0.3,1.2-0.8s-0.4-0.8-1-0.8c-0.9,0-1.4,0.6-1.4,1.7L129.9,110.6z"/>
	<path d="M133.2,113.6c-0.2-0.1-0.2-0.1-0.2-0.3v-0.3c0-0.3,0.1-0.3,0.4-0.2c0.5,0.2,0.9,0.2,1.3,0.2c0.9,0,1.3-0.2,1.3-0.7
		c0-0.4-0.2-0.6-0.9-0.8l-0.5-0.2c-0.9-0.3-1.3-0.8-1.3-1.5c0-1,0.9-1.6,2.2-1.6c0.5,0,1,0.1,1.3,0.2c0.2,0.1,0.2,0.2,0.2,0.4
		l-0.1,0.3c-0.1,0.2-0.2,0.2-0.4,0.1c-0.3-0.1-0.6-0.2-1-0.2c-0.8,0-1.2,0.3-1.2,0.7c0,0.4,0.2,0.5,0.9,0.8l0.5,0.2
		c0.9,0.3,1.3,0.7,1.3,1.5c0,1-0.8,1.6-2.3,1.6C134.2,113.9,133.5,113.7,133.2,113.6z"/>
	<path d="M138.1,115.2v-6.5c0-0.2,0.1-0.3,0.3-0.3h0.3c0.2,0,0.3,0.1,0.3,0.3v0.1c0.3-0.3,0.9-0.6,1.6-0.6c1.4,0,2.1,0.9,2.1,2.7
		c0,1.9-0.9,3-2.5,3c-0.4,0-0.8-0.1-1.1-0.2v1.5c0,0.2-0.1,0.3-0.3,0.3h-0.4C138.2,115.5,138.1,115.4,138.1,115.2z M141.7,110.9
		c0-1.2-0.4-1.8-1.3-1.8c-0.4,0-0.9,0.2-1.2,0.4v3.1c0.3,0.2,0.6,0.2,1,0.2C141.2,112.9,141.7,112.3,141.7,110.9z"/>
	<path d="M143.8,112.3c0-1.2,1-1.7,3.4-1.7v-0.1c0-0.9-0.4-1.3-1.3-1.3c-0.4,0-0.8,0.1-1.2,0.2c-0.3,0.1-0.4,0-0.4-0.1l-0.1-0.3
		c-0.1-0.2,0-0.3,0.2-0.4c0.4-0.2,1.1-0.3,1.7-0.3c1.5,0,2.2,0.7,2.2,2.2v3.1c0,0.2-0.1,0.3-0.3,0.3h-0.3c-0.2,0-0.3-0.1-0.3-0.3
		v-0.2c-0.4,0.4-1,0.6-1.7,0.6C144.4,113.9,143.8,113.3,143.8,112.3z M147.2,112.6v-1.2c-1.7,0-2.3,0.3-2.3,1c0,0.5,0.3,0.7,1,0.7
		C146.3,113,146.8,112.8,147.2,112.6z"/>
	<path d="M149.7,113.4v-4.8c0-0.2,0.1-0.3,0.3-0.3h0.3c0.2,0,0.3,0.1,0.3,0.3v0.1c0.4-0.3,1-0.6,1.6-0.6c1.2,0,1.8,0.7,1.8,2.2v3.1
		c0,0.2-0.1,0.3-0.3,0.3h-0.4c-0.2,0-0.3-0.1-0.3-0.3v-3c0-0.9-0.3-1.3-1-1.3c-0.4,0-0.9,0.2-1.3,0.4v3.9c0,0.2-0.1,0.3-0.3,0.3H150
		C149.8,113.7,149.7,113.7,149.7,113.4z M150.1,107.6c0,0,0-0.1,0-0.2c0.2-0.6,0.5-1.1,1-1.1c0.3,0,0.5,0.1,0.8,0.4
		c0.2,0.2,0.4,0.4,0.6,0.4c0.2,0,0.3-0.1,0.5-0.6c0.1-0.1,0.1-0.2,0.3-0.2c0.2,0,0.3,0.1,0.3,0.3c0,0,0,0.1,0,0.2
		c-0.2,0.6-0.5,1.1-1,1.1c-0.3,0-0.5-0.1-0.8-0.4c-0.2-0.2-0.4-0.4-0.6-0.4c-0.2,0-0.3,0.1-0.5,0.6c-0.1,0.1-0.1,0.2-0.3,0.2
		C150.2,107.9,150.1,107.8,150.1,107.6z"/>
	<path d="M155.4,111c0-1.9,0.8-2.8,2.4-2.8c1.6,0,2.4,0.9,2.4,2.8s-0.8,2.8-2.4,2.8C156.2,113.9,155.4,112.9,155.4,111z M159.2,111
		c0-1.3-0.4-1.9-1.4-1.9c-0.9,0-1.3,0.6-1.3,1.9c0,1.3,0.4,1.9,1.3,1.9C158.8,112.9,159.2,112.4,159.2,111z"/>
	<path d="M161.6,112.3v-5.6c0-0.2,0.1-0.3,0.3-0.3h0.4c0.2,0,0.3,0.1,0.3,0.3v5.5c0,0.5,0.2,0.7,0.6,0.7c0.1,0,0.2,0,0.3,0
		c0.2,0,0.2,0.1,0.2,0.3v0.3c0,0.2-0.1,0.3-0.3,0.3c-0.1,0-0.3,0-0.5,0C162,113.8,161.6,113.4,161.6,112.3z"/>
</g>
</svg>
