<?xml version="1.0" encoding="utf-8"?>
<!-- Generator: Adobe Illustrator 26.0.1, SVG Export Plug-In . SVG Version: 6.00 Build 0)  -->
<svg version="1.1" x="0px" y="0px"
	 viewBox="0 0 70.9 56.7" style="enable-background:new 0 0 70.9 56.7;" xml:space="preserve">
<style type="text/css">
	.st0{fill:url(#SVGID_1_);}
	.st1{fill:none;stroke:#000000;stroke-width:2.4;stroke-miterlimit:10;}
	.st2{fill:url(#SVGID_00000054254795030826266240000002265895903918843041_);}
	.st3{font-family:'PuffinDisplaySoft-Medm';}
	.st4{font-size:20.8094px;}
</style>
<linearGradient id="SVGID_1_" gradientUnits="userSpaceOnUse" x1="33.7389" y1="61.9479" x2="6.1238" y2="8.2523" gradientTransform="matrix(0.9988 -4.856595e-02 4.856595e-02 0.9988 13.2039 -2.8981)">
	<stop  offset="0" style="stop-color:#E30A71"/>
	<stop  offset="7.154704e-02" style="stop-color:#E43471"/>
	<stop  offset="0.2206" style="stop-color:#EB6D6C"/>
	<stop  offset="0.4326" style="stop-color:#F7AF36"/>
	<stop  offset="0.5221" style="stop-color:#FDC800"/>
	<stop  offset="0.5773" style="stop-color:#FCC500"/>
	<stop  offset="0.6439" style="stop-color:#FABC15"/>
	<stop  offset="0.7163" style="stop-color:#F6AC3A"/>
	<stop  offset="0.7928" style="stop-color:#F19556"/>
	<stop  offset="0.8727" style="stop-color:#EC736A"/>
	<stop  offset="0.954" style="stop-color:#E64070"/>
	<stop  offset="1" style="stop-color:#E30A71"/>
</linearGradient>
<path class="st0" d="M52.3,44.7c6.2-4.8,9.9-11.6,9.6-19C61.2,12.3,47.5,2.1,31.3,2.8S2.4,15.1,3,28.5s14.3,23.6,30.6,22.8
	c5.1-0.2,9.9-1.6,14-3.7c2.8,1.8,6,3.7,9.5,5.4c0.2,0.1,0.4-0.1,0.3-0.3C56.4,51.4,54.4,48.4,52.3,44.7z"/>
<path class="st1" d="M56,45c6.4-4.4,10.5-11.1,10.5-18.6C66.5,13.1,53.3,2.2,37,2.2S7.6,13.1,7.6,26.5S20.7,50.7,37,50.7
	c5.1,0,10-1.1,14.2-3c2.7,2,5.8,3.9,9.2,5.9c0.2,0.1,0.4-0.1,0.3-0.3C59.8,52,57.9,48.8,56,45z"/>
<linearGradient id="SVGID_00000057869798734973525230000018114669943197859972_" gradientUnits="userSpaceOnUse" x1="41.6859" y1="41.5113" x2="27.5657" y2="14.0556">
	<stop  offset="0" style="stop-color:#FFFFFF;stop-opacity:0.8"/>
	<stop  offset="6.689394e-02" style="stop-color:#FFFFFF;stop-opacity:0.7465"/>
	<stop  offset="1" style="stop-color:#FFFFFF;stop-opacity:0"/>
</linearGradient>
<ellipse style="fill:url(#SVGID_00000057869798734973525230000018114669943197859972_);" cx="34.6" cy="27.8" rx="17.2" ry="14.9"/>
<text transform="matrix(1 0 0 1 30.3369 32.1729)" class="st3 st4">;)</text>
</svg>
