<?xml version="1.0" encoding="utf-8"?>
<!-- Generator: Adobe Illustrator 26.0.1, SVG Export Plug-In . SVG Version: 6.00 Build 0)  -->
<svg version="1.1" id="Capa_1" xmlns="http://www.w3.org/2000/svg" xmlns:xlink="http://www.w3.org/1999/xlink" x="0px" y="0px"
	 viewBox="0 0 158.7 48.2" style="enable-background:new 0 0 158.7 48.2;" xml:space="preserve">
<g>
	<path d="M0.7,44.5v-42c0-1.4,0.6-1.9,1.9-1.9h2.9c1.4,0,1.9,0.6,1.9,1.9v42c0,1.4-0.6,1.9-1.9,1.9H2.7C1.3,46.5,0.7,45.9,0.7,44.5z
		"/>
	<path d="M23.6,44.4c0,1.6-0.5,2.1-1.7,2.1h-1.7c-1.4,0-1.9-0.6-1.9-1.9v-42c0-1.4,0.6-1.9,1.9-1.9h2.7c1.4,0,1.9,0.6,1.9,1.9v12
		c2.1-1.7,5.6-2.9,9.2-2.9c8.5,0,13.2,5.9,13.2,16.9c0,12-5.4,18.6-15.3,18.6C28.6,47.1,25.8,46.1,23.6,44.4z M40.4,28.6
		c0-7.7-2.5-11.3-7.8-11.3c-2.8,0-5.9,1.1-7.8,2.8v19.4c1.7,1.2,3.7,1.8,6.2,1.8C37.3,41.3,40.4,37.2,40.4,28.6z"/>
	<path d="M54.3,29.8c0-11.8,5.5-18.1,15.8-18.1c7.9,0,12.8,3.9,12.8,10.2c0,5.9-3.9,9-11.5,9.6l-10.2,0.7c0.4,6.4,3.4,9.2,9.9,9.2
		c2.7,0,5.5-0.6,8.3-1.6c1.6-0.6,2.5-0.2,2.5,1.2v2.2c0,1.1-0.4,1.8-1.4,2.2c-2.1,1-6.5,1.8-10,1.8C59.5,47.1,54.3,41.5,54.3,29.8z
		 M69.1,26.8c5-0.4,7.3-1.8,7.3-5s-2.4-5-6.4-5c-5.6,0-8.8,3.7-8.9,10.5L69.1,26.8z"/>
	<path d="M90.6,44.5V14.3c0-1.4,0.6-2,1.9-2h2.2c1.4,0,1.9,0.6,1.9,1.8v2.2h0.1c2.7-2.6,7-4.4,10.5-4.4c1.5,0,2.1,0.5,2.1,1.9v2.9
		c0,1.3-0.5,1.9-1.7,1.9c-0.6,0-1.1-0.1-1.5-0.1c-3.5,0-6.6,0.9-8.9,2.6v23.4c0,1.4-0.6,1.9-1.9,1.9h-2.7
		C91.2,46.5,90.6,45.9,90.6,44.5z"/>
	<path d="M113.6,5.2c0-2.7,1.6-4.2,4.6-4.2c3,0,4.6,1.5,4.6,4.2c0,2.7-1.6,4.2-4.6,4.2C115.3,9.5,113.6,7.9,113.6,5.2z M115,44.5
		V15.3c0-1.2,0.6-1.8,1.9-1.7c0.5,0.1,0.9,0.1,1.4,0.1c0.5,0,0.9-0.1,1.4-0.1c1.3-0.1,1.9,0.4,1.9,1.7v29.3c0,1.4-0.6,1.9-1.9,1.9
		h-2.7C115.5,46.5,115,45.9,115,44.5z"/>
	<path d="M129.2,37.4c0-7.5,6.2-10.8,21.3-10.8v-0.8c0-5.8-2.6-8.3-8.2-8.3c-2.6,0-4.8,0.5-7.5,1.4c-1.6,0.6-2.4,0.3-2.8-0.9
		l-0.5-1.9c-0.4-1.1-0.1-1.9,1-2.4c2.2-1.1,7.1-2,10.8-2c9.2,0,13.8,4.6,13.8,13.5v19.4c0,1.3-0.6,1.9-1.9,1.9h-2.1
		c-1.4,0-2-0.6-2-2v-1.1c-2.6,2.4-6.5,3.7-10.8,3.7C133.2,47.1,129.2,43.5,129.2,37.4z M150.5,39v-7.7c-10.9,0.1-14.6,1.8-14.6,6
		c0,3.1,2.1,4.7,6,4.7C145,41.9,148.2,40.8,150.5,39z"/>
</g>
</svg>
